<?xml version="1.0" encoding="utf-8"?>
<!-- Generator: Adobe Illustrator 19.2.1, SVG Export Plug-In . SVG Version: 6.00 Build 0)  -->
<svg version="1.1" id="Capa_1" xmlns="http://www.w3.org/2000/svg" xmlns:xlink="http://www.w3.org/1999/xlink" x="0px" y="0px"
	 viewBox="0 0 80.5 90" style="enable-background:new 0 0 80.5 90;" xml:space="preserve">
<path d="M67.2,39L67.2,39c-0.1-1-0.9-1.8-1.9-1.8c-1,0-1.9,0.8-1.9,1.9c0,0,0,0.1,0,0.1h0c0.2,2.5-0.7,5-2.3,6.9
	c-0.9-0.6-1.8-1-2.9-1.2c-1.6-0.4-3.3-0.3-4.9,0.1l0,0c-0.8,0.2-1.4,1-1.4,1.8c0,1,0.8,1.9,1.9,1.9c0.2,0,0.4,0,0.5-0.1l0,0
	c1-0.3,2-0.3,2.9-0.1c1,0.2,1.9,0.7,2.6,1.4c0.7,0.7,1.2,1.6,1.5,2.5c0.3,1,0.3,2,0.1,3l0,0c0,0.1-0.1,0.3-0.1,0.5
	c0,1,0.8,1.9,1.9,1.9c0.9,0,1.6-0.6,1.8-1.4l0,0c0,0,0,0,0-0.1c0,0,0,0,0,0c0.4-1.6,0.3-3.3-0.1-4.8c-0.3-1-0.7-1.9-1.3-2.7
	C66.3,46.1,67.5,42.5,67.2,39z"/>
<path d="M31.4,44.5L31.4,44.5C31.4,44.5,31.4,44.5,31.4,44.5C31.4,44.5,31.4,44.5,31.4,44.5c-3.6-1.7-7.5-1.7-11-0.2
	c-0.6-0.8-1.3-1.5-2.2-2c-1.4-0.9-3-1.5-4.6-1.6v0c0,0-0.1,0-0.1,0c-1,0-1.9,0.8-1.9,1.9c0,1,0.8,1.8,1.8,1.9v0c1,0.1,2,0.4,2.8,1
	c0.8,0.6,1.5,1.3,1.9,2.2c0.4,0.9,0.6,1.9,0.6,2.9c-0.1,1-0.4,2-1,2.8l0,0c0,0,0,0,0,0c-0.2,0.3-0.3,0.7-0.3,1.1
	c0,1,0.9,1.9,1.9,1.9c0.7,0,1.2-0.3,1.6-0.8c0.9-1.4,1.5-3,1.6-4.6c0.1-1,0-2.1-0.3-3.1c2.4-1,5.3-1,7.7,0.2l0,0
	c0.2,0.1,0.5,0.2,0.8,0.2c1,0,1.9-0.8,1.9-1.9C32.5,45.4,32.1,44.8,31.4,44.5z"/>
<path d="M80.5,49.7c0-3.8-1-7.4-2.9-10.7c0-0.2,0-0.5,0-0.7c0-7.4-4.1-14-10.6-17.2c0.1-0.6,0.1-1.2,0.1-1.7c0-4.9-2.6-9.4-6.8-11.8
	C58.4,3,53.8,0,48.8,0c-3.7,0-6.7,1.5-8.5,4.2C38.4,1.5,35.4,0,31.7,0c-5,0-9.6,3-11.6,7.6c-4.2,2.4-6.8,6.9-6.8,11.8
	c0,0.6,0,1.2,0.1,1.7C6.9,24.4,2.8,31,2.8,38.4c0,0.2,0,0.5,0,0.7C1,42.3,0,46,0,49.7c0,5.1,1.8,10,5.1,13.9
	c-0.3,1.1-0.4,2.1-0.4,3.2c0,4.9,2.7,9.4,6.9,11.9C13,85.2,19.7,90,27.9,90c5.4,0,9.8-2.2,12.3-5.9c2.5,3.7,6.9,5.9,12.3,5.9
	c8.2,0,14.9-4.8,16.3-11.3c4.2-2.4,6.9-6.9,6.9-11.9c0-1.1-0.1-2.2-0.4-3.2C78.7,59.7,80.5,54.9,80.5,49.7z M38,76.3
	c0,5.5-4,9.1-10.1,9.1c-6.2,0-11.5-3.7-11.9-8.4l0,0c0,0,0-0.1,0-0.1c0.2-4.4,2.3-8.8,7.6-8.8c3.1,0,5.7,2.6,5.7,5.7
	c0,1,0.8,1.9,1.9,1.9s1.9-0.9,1.9-1.9c0-3.1-1.5-5.9-3.8-7.6c2.3-1.7,3.8-4.5,3.8-7.6c0-1-0.8-1.9-1.9-1.9s-1.9,0.8-1.9,1.9
	c0,3.1-2.6,5.7-5.7,5.7c-5.7,0-9.8,3.7-11,9.5c-2-1.7-3.2-4.2-3.2-7c0-1,0.2-2,0.5-3C9.9,63.6,10,63.3,10,63c0-0.6-0.3-1.2-0.7-1.6
	c-3-3.1-4.7-7.3-4.7-11.7c0-3.2,0.9-6.2,2.5-8.9l0,0c0.2-0.4,0.4-0.8,0.4-1.2c0-0.1,0-0.1,0-0.2h0c0-0.4,0-0.8,0-1.1
	c0-5.7,3.2-10.8,8.3-13.3c1.6,2.3,3.9,3.8,7.1,4.4c-0.1,0.9,0,1.8,0.1,2.7c0.3,1.6,1.1,3.2,2.2,4.4l0,0c0.3,0.4,0.9,0.7,1.4,0.7
	c1,0,1.9-0.8,1.9-1.9c0-0.5-0.2-0.9-0.5-1.2l0,0c-0.7-0.8-1.1-1.7-1.3-2.7c-0.2-1-0.1-2,0.2-2.9c0.3-0.9,0.9-1.8,1.6-2.4
	c0.8-0.7,1.7-1.1,2.7-1.3v0c0.9-0.2,1.5-0.9,1.5-1.9c0-1-0.8-1.9-1.9-1.9c-0.1,0-0.2,0-0.4,0v0c0,0,0,0,0,0c0,0,0,0,0,0
	c-1.6,0.3-3.1,1.1-4.4,2.1c-0.9,0.7-1.6,1.6-2.1,2.6c-2.9-0.5-4.6-1.8-5.7-4c0-0.1,0-0.1,0-0.2c-0.2-0.8-0.3-1.5-0.3-2.3
	c0-3.5,1.9-6.6,5.1-8.2l0,0c0.5-0.3,0.9-0.7,1.1-1.3l0,0c1.2-3.2,4.3-5.4,7.7-5.4c5.5,0,6.3,5.1,6.3,8.2C38,12.7,38,76.3,38,76.3z
	 M71.2,61.4c-0.4,0.4-0.7,1-0.7,1.6c0,0.3,0.1,0.6,0.2,0.8c0.3,1,0.5,2,0.5,3c0,2.7-1.2,5.3-3.2,7c-1.2-5.8-5.3-9.5-11-9.5
	c-3.1,0-5.7-2.6-5.7-5.7c0-1-0.8-1.9-1.9-1.9s-1.9,0.8-1.9,1.9c0,3.1,1.5,5.9,3.8,7.6c-2.3,1.7-3.8,4.5-3.8,7.6c0,1,0.8,1.9,1.9,1.9
	s1.9-0.9,1.9-1.9c0-3.1,2.6-5.7,5.7-5.7c5.3,0,7.4,4.4,7.6,8.8c0,0,0,0.1,0,0.1c-0.5,4.7-5.7,8.4-11.9,8.4c-6.1,0-10.1-3.6-10.1-9.1
	V12.7c0-3,0.8-8.2,6.3-8.2c3.4,0,6.5,2.2,7.7,5.4h0c0.2,0.6,0.6,1,1.1,1.3l0,0c3.1,1.6,5.1,4.7,5.1,8.2c0,0.8-0.1,1.6-0.3,2.3
	c0,0.1,0,0.1,0,0.2c-1,2.2-2.8,3.5-5.7,4c-0.5-1-1.3-1.9-2.1-2.6c-1.2-1.1-2.8-1.8-4.4-2.1c0,0,0,0,0,0c0,0,0,0,0,0v0
	c-0.1,0-0.2,0-0.4,0c-1,0-1.9,0.9-1.9,1.9c0,0.9,0.7,1.7,1.5,1.9v0c1,0.2,1.9,0.6,2.7,1.3c0.8,0.7,1.3,1.5,1.6,2.4
	c0.3,0.9,0.4,2,0.2,2.9c-0.2,1-0.6,1.9-1.3,2.7l0,0c-0.3,0.3-0.5,0.8-0.5,1.2c0,1,0.9,1.9,1.9,1.9c0.6,0,1.1-0.3,1.4-0.7l0,0
	c1.1-1.3,1.8-2.8,2.2-4.4c0.2-0.9,0.2-1.8,0.1-2.7c3.2-0.7,5.5-2.1,7.1-4.4c5.1,2.5,8.3,7.6,8.3,13.3c0,0.4,0,0.8,0,1.1
	c0,0.1,0,0.1,0,0.2c0,0.4,0.1,0.9,0.3,1.2l0,0c1.7,2.7,2.5,5.7,2.5,8.9C75.9,54.1,74.3,58.3,71.2,61.4z"/>
</svg>
