<?xml version="1.0" encoding="utf-8"?>
<!-- Generator: Adobe Illustrator 19.2.1, SVG Export Plug-In . SVG Version: 6.00 Build 0)  -->
<svg version="1.1"
	 id="Capa_1" xmlns:cc="http://creativecommons.org/ns#" xmlns:dc="http://purl.org/dc/elements/1.1/" xmlns:inkscape="http://www.inkscape.org/namespaces/inkscape" xmlns:rdf="http://www.w3.org/1999/02/22-rdf-syntax-ns#" xmlns:sodipodi="http://sodipodi.sourceforge.net/DTD/sodipodi-0.dtd" xmlns:svg="http://www.w3.org/2000/svg"
	 xmlns="http://www.w3.org/2000/svg" xmlns:xlink="http://www.w3.org/1999/xlink" x="0px" y="0px" viewBox="0 0 12.6 11.1"
	 style="enable-background:new 0 0 12.6 11.1;" xml:space="preserve">
<g transform="translate(0,-1036.3622)">
	<path d="M10,1036.4v1.5c-0.8,0.1-1.5,0.4-2.1,0.8c-1,0.7-1.9,1.6-2.8,2.5s-1.8,1.9-2.6,2.6c-0.9,0.7-1.7,1.1-2.5,1.1v1
		c1.2,0,2.2-0.6,3.1-1.3s1.8-1.8,2.7-2.7s1.7-1.8,2.6-2.4c0.5-0.4,1.1-0.6,1.6-0.6v1.6l0.8-0.7l1.7-1.4L10,1036.4z M0,1037.9v1
		c1.3,0,2.6,1.1,4,2.6l0.7-0.7C3.3,1039.3,1.8,1037.9,0,1037.9z M6.2,1042.3l-0.7,0.7c0.8,0.9,1.7,1.7,2.6,2.3
		c0.6,0.4,1.3,0.6,1.9,0.7v1.5l0.8-0.7l1.7-1.4l-2.6-2v1.6c-0.5-0.1-0.9-0.2-1.4-0.5C7.8,1043.9,7,1043.2,6.2,1042.3z"/>
</g>
</svg>
