<?xml version="1.0" encoding="utf-8"?>
<!-- Generator: Adobe Illustrator 19.2.1, SVG Export Plug-In . SVG Version: 6.00 Build 0)  -->
<svg version="1.1" id="Capa_1" xmlns="http://www.w3.org/2000/svg" xmlns:xlink="http://www.w3.org/1999/xlink" x="0px" y="0px"
	 viewBox="0 0 57.2 58.3" style="enable-background:new 0 0 57.2 58.3;" xml:space="preserve">
<path d="M22.4,14.2c-0.5,0-0.9,0.1-1.4,0.3V6.1c0-1.9-1.5-3.4-3.4-3.4c0,0,0,0,0,0c-0.5,0-1,0.1-1.4,0.3c-0.2-1.8-1.8-3.2-3.7-3
	c-1.7,0.2-2.9,1.5-3,3.2c-1.7-0.8-3.7,0-4.5,1.7C4.9,5.3,4.7,5.8,4.8,6.3v3.6c-1.7-0.8-3.7,0-4.4,1.7C0.1,11.9,0,12.4,0,12.9v22.6
	c0,2,0.7,3.8,2.1,5.3c0.9,0.9,1.4,2.1,1.5,3.4l1.2,13.2c0,0.5,0.5,0.9,1,0.9h0.1c0.5,0,1-0.5,0.9-1.1L5.6,44c-0.1-1.7-0.8-3.3-2-4.6
	c-1-1.1-1.5-2.4-1.5-3.9V12.9c0.1-0.8,0.7-1.3,1.5-1.3c0.7,0.1,1.2,0.6,1.3,1.3v12.2c0,0.6,0.4,1,1,1s1-0.4,1-1V6.3
	C6.9,5.5,7.6,4.9,8.3,5C9,5.1,9.5,5.6,9.6,6.3v16.3c0,0.6,0.4,1,1,1c0.6,0,1-0.4,1-1V3.3c0.1-0.8,0.7-1.3,1.5-1.3
	c0.7,0.1,1.2,0.6,1.3,1.3v19c0,0.6,0.4,1,1,1s1-0.4,1-1V6.1c0.1-0.8,0.7-1.3,1.5-1.3c0.7,0.1,1.2,0.6,1.3,1.3v17.2c0,0.6,0.4,1,1,1
	s1-0.4,1-1v-5.8c0.1-0.8,0.7-1.3,1.5-1.3c0.7,0.1,1.2,0.6,1.3,1.3v16c0,1.8-0.8,3.5-2.2,4.6c-1.6,1.4-2.7,3.4-2.8,5.6l-1,12.4
	c0,0.5,0.4,1,0.9,1.1h0.1c0.5,0,1-0.4,1-0.9L20.8,44c0.1-1.6,0.9-3.1,2.1-4.2c1.8-1.6,2.9-3.8,2.8-6.2v-16
	C25.7,15.7,24.2,14.2,22.4,14.2z"/>
<path d="M53.9,9.5c-0.5,0-0.9,0.1-1.4,0.3V6.3c0-1.9-1.5-3.4-3.4-3.4c-0.5,0-1,0.1-1.4,0.3c-0.1-1.9-1.7-3.3-3.5-3.2
	c-1.7,0.1-3,1.4-3.2,3c-1.7-0.8-3.7-0.1-4.5,1.6c-0.2,0.5-0.3,1-0.3,1.5v8.4c-1.7-0.8-3.7,0-4.4,1.7c-0.2,0.4-0.3,0.9-0.3,1.4v16
	c0,2.4,1,4.6,2.8,6.2c1.2,1.1,2,2.6,2.1,4.2l0.9,12.4c0,0.5,0.5,0.9,1,0.9h0.1c0.5,0,1-0.5,0.9-1.1l-1-12.4
	c-0.2-2.2-1.2-4.2-2.8-5.6c-1.4-1.2-2.2-2.9-2.2-4.7v-16c0.1-0.8,0.7-1.3,1.5-1.3c0.7,0.1,1.2,0.6,1.3,1.3v5.8c0,0.6,0.4,1,1,1
	s1-0.4,1-1V6.1c0.1-0.8,0.7-1.3,1.5-1.3c0.7,0.1,1.2,0.6,1.3,1.3v16.2c0,0.6,0.4,1,1,1s1-0.4,1-1v-19C43,2.6,43.7,2,44.5,2.1
	c0.7,0.1,1.2,0.6,1.3,1.3v19.2c0,0.6,0.4,1,1,1s1-0.4,1-1V6.3c0.1-0.8,0.7-1.3,1.5-1.3c0.7,0.1,1.2,0.6,1.3,1.3v18.9
	c0,0.6,0.4,1,1,1s1-0.4,1-1V12.9c0.1-0.8,0.7-1.3,1.5-1.3c0.7,0.1,1.2,0.6,1.3,1.3v22.6c0,1.4-0.5,2.8-1.5,3.9
	c-1.2,1.3-1.9,2.9-2,4.6l-1.2,13.2c0,0.5,0.4,1,0.9,1.1h0.1c0.5,0,1-0.4,1-0.9l1.1-13.2c0.1-1.3,0.6-2.5,1.5-3.4
	c1.3-1.4,2.1-3.3,2.1-5.3V12.9C57.2,11.1,55.7,9.6,53.9,9.5z"/>
</svg>
