<?xml version="1.0" encoding="utf-8"?>
<!-- Generator: Adobe Illustrator 19.2.1, SVG Export Plug-In . SVG Version: 6.00 Build 0)  -->
<svg version="1.1" id="Capa_1" xmlns="http://www.w3.org/2000/svg" xmlns:xlink="http://www.w3.org/1999/xlink" x="0px" y="0px"
	 viewBox="0 0 35.9 88.1" style="enable-background:new 0 0 35.9 88.1;" xml:space="preserve">
<g>
	<path d="M8.2,88.1c-1.2,0-2.1,0-2.8-0.1c-3.7-0.4-5-0.9-6.3-2.9c-0.5-0.7-0.3-1.3-0.1-1.6c0.5-1,2.2-1.3,3.1-1.3
		c0.5,0,1.1,0.1,1.6,0.4c0.5,0.4,1.2,0.4,1.5,0.4c0.1,0,0.1,0,0.1,0c3.7-0.4,6.1-1.7,8.4-2.8c1-0.5,1.9-0.9,2.8-1.3
		c2.9-1.2,2.5-3.4,2.5-3.5l0-0.1c0-1.5,0-3,0-4.4c0.1-10,0.1-18.7-2.7-23.5c-3.1-5.3-1.2-11.1-0.5-13.2c0.1-0.2,0.1-0.4,0.2-0.6
		c0.5-1.5,0-4,0-4c-3.3-17.9-0.1-28.6,0-29L16.3,0l0.6,0.2c3.1,1,6.6,1.5,10.5,1.5C31.7,1.6,34.9,1,35,1l0.7-0.1l0.1,0.7
		c0.9,10.9-1.7,18.7-3.7,25c-1.1,3.5-2.1,6.5-2.4,9.4c-0.5,4.8-0.1,5.5,0.7,7.1c0.6,1.2,1.4,2.9,2.3,7c1,4.7-0.3,8.6-1.5,12.4
		c-1.3,4.1-2.6,8.1-1.2,13.1c1.5,5.4,1.6,8.2,0.5,9.8c-1.1,1.5-3.2,1.7-5.9,1.9c-1.4,0.1-3.1,0.2-4.8,0.3
		C15.7,87.8,11.3,88.1,8.2,88.1z M2.1,83.5c-1,0-1.9,0.3-2.1,0.6c0,0-0.1,0.1,0.1,0.4c1,1.5,1.9,1.9,5.5,2.3
		c0.6,0.1,1.5,0.1,2.6,0.1c3.1,0,7.4-0.3,11.3-0.5c1.8-0.1,3.4-0.2,4.9-0.3c2.7-0.1,4.2-0.4,5-1.4c0.9-1.2,0.7-4-0.7-8.8
		c-1.5-5.4-0.1-9.7,1.2-13.8c1.2-3.8,2.3-7.4,1.5-11.8c-0.8-4-1.6-5.6-2.2-6.8c-0.8-1.7-1.3-2.6-0.8-7.7c0.3-3.1,1.3-6.1,2.5-9.7
		c2.1-6.4,4.4-13.6,3.7-23.9c-1.2,0.2-3.8,0.6-7.1,0.6c-3.7,0-7.2-0.5-10.3-1.3c-0.6,2.4-2.7,12.6,0.2,27.9c0,0.1,0.5,2.8,0,4.5
		c0,0.2-0.1,0.4-0.2,0.6c-0.7,2.2-2.4,7.4,0.4,12.3c2.9,5.1,2.9,13.9,2.8,24.1c0,1.4,0,2.9,0,4.4c0.2,1.1-0.3,3.5-3.2,4.7
		c-0.9,0.4-1.8,0.8-2.7,1.3c-2.3,1.2-4.9,2.5-8.9,3c0,0-0.1,0-0.3,0c-0.5,0-1.4-0.1-2.2-0.6C2.9,83.6,2.6,83.5,2.1,83.5z"/>
</g>
</svg>
