<?xml version="1.0" encoding="utf-8"?>
<!-- Generator: Adobe Illustrator 19.2.1, SVG Export Plug-In . SVG Version: 6.00 Build 0)  -->
<svg version="1.1" id="Capa_1" xmlns="http://www.w3.org/2000/svg" xmlns:xlink="http://www.w3.org/1999/xlink" x="0px" y="0px"
	 viewBox="0 0 31.5 81.7" style="enable-background:new 0 0 31.5 81.7;" xml:space="preserve">
<g>
	<path d="M21.8,8l0-0.7l-0.1-0.7l-0.2-0.7l-0.3-0.6l-0.3-0.6l-0.4-0.6l-0.5-0.5l-0.5-0.4l-0.6-0.4l-0.6-0.3l-0.7-0.2l-0.7-0.2
		L16.1,2h-0.7l-0.7,0.1L14,2.2l-0.7,0.2l-0.6,0.3l-0.6,0.4l-0.5,0.4l-0.5,0.5l-0.4,0.6l-0.3,0.6l-0.3,0.6L9.9,6.6L9.8,7.3l0,0.7
		l0,0.7l0.1,0.7l0.2,0.7l0.3,0.6l0.3,0.6l0.4,0.6l0.5,0.5l0.5,0.4l0.6,0.4l0.6,0.3l0.7,0.2l0.7,0.2l0.7,0.1h0.7l0.7-0.1l0.7-0.2
		l0.7-0.2l0.6-0.3l0.6-0.4l0.5-0.4l0.5-0.5l0.4-0.6l0.3-0.6l0.3-0.6l0.2-0.7l0.1-0.7L21.8,8 M23.8,8l0,0.8l-0.1,0.8l-0.2,0.8
		l-0.3,0.8l-0.4,0.7l-0.4,0.7l-0.5,0.6l-0.6,0.6l-0.6,0.5L20,14.8l-0.7,0.4l-0.7,0.3l-0.8,0.2L17,15.9L16.2,16h-0.8l-0.8-0.1
		l-0.8-0.2L13,15.5l-0.7-0.3l-0.7-0.4l-0.7-0.5l-0.6-0.5l-0.6-0.6l-0.5-0.6l-0.4-0.7l-0.4-0.7l-0.3-0.8L7.9,9.6L7.8,8.8l0-0.8l0-0.8
		l0.1-0.8l0.2-0.8l0.3-0.8l0.4-0.7l0.4-0.7l0.5-0.6l0.6-0.6l0.6-0.5l0.7-0.5l0.7-0.4L13,0.5l0.8-0.2l0.8-0.2L15.3,0h0.8L17,0.1
		l0.8,0.2l0.8,0.2l0.7,0.3L20,1.2l0.7,0.5l0.6,0.5l0.6,0.6l0.5,0.6l0.4,0.7l0.4,0.7l0.3,0.8l0.2,0.8l0.1,0.8L23.8,8"/>
	<polyline points="27.8,23.9 17.2,45.1 17.1,45.2 17.1,45.4 17.1,78.2 17.2,78.5 17.3,78.7 17.4,78.8 17.6,79 17.9,79 23.2,79 
		23.5,79 23.7,79.1 23.9,79.3 24,79.5 24,79.7 24,81 24,81.2 23.9,81.4 23.7,81.6 23.5,81.7 23.2,81.7 8.2,81.7 8,81.7 7.8,81.6 
		7.6,81.4 7.5,81.2 7.5,81 7.5,79.7 7.5,79.5 7.6,79.3 7.8,79.1 8,79 8.2,79 13.6,79 13.9,79 14.1,78.8 14.2,78.7 14.3,78.5 
		14.4,78.2 14.4,45.4 14.4,45.2 14.3,45.1 3.7,23.9 3.6,23.7 3.4,23.6 3.2,23.6 3,23.6 2.9,23.7 2.8,23.9 2.8,24.1 2.8,51 2.7,51.2 
		2.6,51.4 2.4,51.6 2.2,51.7 2,51.7 0.8,51.7 0.5,51.7 0.3,51.6 0.1,51.4 0,51.2 0,51 0,20.9 0,20.5 0.2,20 0.4,19.6 0.6,19.3 
		0.9,19 1.3,18.7 1.7,18.5 2.1,18.4 2.6,18.4 3,18.5 3.5,18.6 3.9,18.8 4.2,19.1 4.5,19.4 4.7,19.8 15.1,40.5 15.2,40.7 15.4,40.8 
		15.6,40.9 15.9,40.9 16.1,40.8 16.3,40.7 16.4,40.5 26.8,19.8 27,19.4 27.3,19.1 27.6,18.8 28,18.6 28.5,18.5 28.9,18.4 29.4,18.4 
		29.8,18.5 30.2,18.7 30.6,19 30.9,19.3 31.2,19.6 31.3,20 31.5,20.5 31.5,20.9 31.5,51 31.5,51.2 31.4,51.4 31.2,51.6 31,51.7 
		30.8,51.7 29.5,51.7 29.3,51.7 29.1,51.6 28.9,51.4 28.8,51.2 28.8,51 28.8,24.1 28.7,23.9 28.6,23.7 28.5,23.6 28.3,23.6 
		28.1,23.6 27.9,23.7 27.8,23.9 	"/>
</g>
</svg>
