<?xml version="1.0" encoding="utf-8"?>
<!-- Generator: Adobe Illustrator 19.2.1, SVG Export Plug-In . SVG Version: 6.00 Build 0)  -->
<svg version="1.1" id="Capa_1" xmlns="http://www.w3.org/2000/svg" xmlns:xlink="http://www.w3.org/1999/xlink" x="0px" y="0px"
	 viewBox="0 0 80.2 96" style="enable-background:new 0 0 80.2 96;" xml:space="preserve">
<path d="M2,96c-0.3,0-0.7-0.1-1-0.3c-0.6-0.4-1-1-1-1.7V2c0-0.7,0.4-1.4,1-1.7c0.6-0.3,1.4-0.3,2,0l76.2,46c0.6,0.4,1,1,1,1.7
	c0,0.7-0.4,1.4-1,1.7L3,95.7C2.7,95.9,2.4,96,2,96z M4,5.5v84.9L74.3,48C74.3,48,4,5.5,4,5.5z"/>
</svg>
