<?xml version="1.0" encoding="utf-8"?>
<!-- Generator: Adobe Illustrator 19.2.1, SVG Export Plug-In . SVG Version: 6.00 Build 0)  -->
<svg version="1.1" id="Capa_1" xmlns="http://www.w3.org/2000/svg" xmlns:xlink="http://www.w3.org/1999/xlink" x="0px" y="0px"
	 viewBox="0 0 56.1 56.2" style="enable-background:new 0 0 56.1 56.2;" xml:space="preserve">
<path d="M49.1,56.2H6.9c-3.8,0-6.9-3.1-6.9-6.9V6.9C0,3.1,3.1,0,6.9,0h42.3c3.8,0,6.9,3.1,6.9,6.9v42.3C56.1,53,53,56.2,49.1,56.2z
	 M6.9,2.2c-2.6,0-4.7,2.1-4.7,4.7v42.3c0,2.6,2.1,4.7,4.7,4.7h42.3c2.6,0,4.7-2.1,4.7-4.7V6.9c0-2.6-2.1-4.7-4.7-4.7
	C49.2,2.2,6.9,2.2,6.9,2.2z"/>
</svg>
