<?xml version="1.0" encoding="utf-8"?>
<!-- Generator: Adobe Illustrator 19.2.1, SVG Export Plug-In . SVG Version: 6.00 Build 0)  -->
<svg version="1.1" id="Capa_1" xmlns="http://www.w3.org/2000/svg" xmlns:xlink="http://www.w3.org/1999/xlink" x="0px" y="0px"
	 viewBox="0 0 90 54.2" style="enable-background:new 0 0 90 54.2;" xml:space="preserve">
<path d="M90,46.9l0-40c0-0.4-0.2-0.8-0.6-1c-0.4-0.2-0.8-0.1-1.1,0.1L63,24.9V6.2C63,2.8,60.2,0,56.8,0H6.2C2.8,0,0,2.8,0,6.2V48
	c0,3.4,2.8,6.2,6.2,6.2h50.5c3.4,0,6.2-2.8,6.2-6.2V29.2l25.2,18.9c0.2,0.1,0.4,0.2,0.6,0.2c0,0,0,0,0,0c0.6,0,1.1-0.5,1.1-1.1
	C90,47.1,90,47,90,46.9z M60.9,48c0,2.2-1.8,4.1-4.1,4.1H6.2C4,52,2.2,50.2,2.2,48V6.2C2.2,4,4,2.2,6.2,2.2h50.5
	c2.3,0,4.1,1.8,4.1,4.1V48z M63.8,27.1l24-18l0,36L63.8,27.1z"/>
</svg>
